<svg width="20" height="19" viewBox="0 0 20 19" fill="none" xmlns="http://www.w3.org/2000/svg">
<g id="fi-rr-info" clip-path="url(#clip0_566_6230)">
<path id="Vector" d="M10 0C8.02219 0 6.08879 0.557165 4.4443 1.60104C2.79981 2.64491 1.51809 4.12861 0.761209 5.86451C0.00433286 7.60041 -0.193701 9.51054 0.192152 11.3534C0.578004 13.1962 1.53041 14.8889 2.92894 16.2175C4.32746 17.5461 6.10929 18.4509 8.0491 18.8175C9.98891 19.184 11.9996 18.9959 13.8268 18.2769C15.6541 17.5578 17.2159 16.3402 18.3147 14.7779C19.4135 13.2157 20 11.3789 20 9.5C19.9971 6.98128 18.9426 4.5665 17.0679 2.78549C15.1932 1.00449 12.6513 0.00272419 10 0V0ZM10 17.4167C8.35183 17.4167 6.74066 16.9524 5.37025 16.0825C3.99984 15.2126 2.93174 13.9762 2.30101 12.5296C1.67028 11.083 1.50525 9.49122 1.82679 7.95554C2.14834 6.41985 2.94201 5.00924 4.10745 3.90207C5.27289 2.79491 6.75774 2.04092 8.37425 1.73545C9.99076 1.42998 11.6663 1.58676 13.189 2.18595C14.7118 2.78515 16.0132 3.79985 16.9289 5.10174C17.8446 6.40363 18.3333 7.93423 18.3333 9.5C18.3309 11.5989 17.4522 13.6112 15.8899 15.0954C14.3276 16.5795 12.2094 17.4144 10 17.4167Z" fill="#FEFEFE"/>
<path id="Vector_2" d="M9.99992 7.91687H9.16658C8.94557 7.91687 8.73361 8.00028 8.57733 8.14874C8.42105 8.29721 8.33325 8.49857 8.33325 8.70854C8.33325 8.9185 8.42105 9.11986 8.57733 9.26833C8.73361 9.4168 8.94557 9.5002 9.16658 9.5002H9.99992V14.2502C9.99992 14.4602 10.0877 14.6615 10.244 14.81C10.4003 14.9585 10.6122 15.0419 10.8332 15.0419C11.0543 15.0419 11.2662 14.9585 11.4225 14.81C11.5788 14.6615 11.6666 14.4602 11.6666 14.2502V9.5002C11.6666 9.08028 11.491 8.67755 11.1784 8.38062C10.8659 8.08369 10.4419 7.91687 9.99992 7.91687Z" fill="#FEFEFE"/>
<path id="Vector_3" d="M10 6.33313C10.6904 6.33313 11.25 5.80147 11.25 5.14563C11.25 4.48979 10.6904 3.95813 10 3.95813C9.30964 3.95813 8.75 4.48979 8.75 5.14563C8.75 5.80147 9.30964 6.33313 10 6.33313Z" fill="#FEFEFE"/>
</g>
<defs>
<clipPath id="clip0_566_6230">
<rect width="20" height="19" fill="white"/>
</clipPath>
</defs>
</svg>
