<svg width="21" height="20" viewBox="0 0 21 20" fill="none" xmlns="http://www.w3.org/2000/svg">
<g id="fi-sr-checkbox">
<g clip-path="url(#clip0_468_6703)">
<g id="Group">
<path id="Vector" d="M16.2256 0H4.2699C1.91288 0.00277344 0.00284214 1.86664 0 4.16668V15.8334C0.00284214 18.1334 1.91288 19.9973 4.2699 20H16.2256C18.5826 19.9973 20.4927 18.1334 20.4955 15.8333V4.16668C20.4927 1.86664 18.5826 0.00277344 16.2256 0ZM17.0796 6.7325L9.17684 14.4442C8.50998 15.0952 7.42856 15.0954 6.76142 14.4446C6.76126 14.4445 6.7611 14.4443 6.76094 14.4442L3.4159 11.1809C3.08172 10.8548 3.08172 10.3261 3.4159 10C3.75007 9.67398 4.29184 9.67395 4.62597 10L7.97013 13.2634L15.8737 5.55168C16.2079 5.22676 16.7487 5.22769 17.0816 5.55375C17.4147 5.87984 17.4137 6.40758 17.0796 6.7325Z" fill="#0F55A8"/>
</g>
</g>
</g>
<defs>
<clipPath id="clip0_468_6703">
<rect width="20.4955" height="20" rx="10" fill="white"/>
</clipPath>
</defs>
</svg>
