<svg width="84" height="84" viewBox="0 0 84 84" fill="none" xmlns="http://www.w3.org/2000/svg">
<g id="Group 1147">
<path id="Vector" d="M41.9492 83.8983C65.117 83.8983 83.8983 65.117 83.8983 41.9492C83.8983 18.7813 65.117 0 41.9492 0C18.7813 0 0 18.7813 0 41.9492C0 65.117 18.7813 83.8983 41.9492 83.8983Z" fill="#EDF3FF"/>
<path id="Vector_2" d="M36.5141 40.3758H26.619C24.1195 40.3758 22.0913 38.3422 22.0913 35.8481V25.953C22.0913 23.4535 24.1249 21.4253 26.619 21.4253H36.5141C39.0136 21.4253 41.0418 23.4589 41.0418 25.953V35.8481C41.0418 38.3476 39.0082 40.3758 36.5141 40.3758ZM26.619 22.8929C24.9302 22.8929 23.5589 24.2642 23.5589 25.953V35.8481C23.5589 37.5369 24.9302 38.9082 26.619 38.9082H36.5141C38.2029 38.9082 39.5742 37.5369 39.5742 35.8481V25.953C39.5742 24.2642 38.2029 22.8929 36.5141 22.8929H26.619Z" fill="#374970" stroke="#374970"/>
<path id="Vector_3" d="M36.5141 61.8067H26.619C24.1195 61.8067 22.0913 59.7731 22.0913 57.279V47.3839C22.0913 44.8844 24.1249 42.8562 26.619 42.8562H36.5141C39.0136 42.8562 41.0418 44.8898 41.0418 47.3839V57.279C41.0418 59.7785 39.0082 61.8067 36.5141 61.8067ZM26.619 44.3238C24.9302 44.3238 23.5589 45.6951 23.5589 47.3839V57.279C23.5589 58.9678 24.9302 60.3391 26.619 60.3391H36.5141C38.2029 60.3391 39.5742 58.9678 39.5742 57.279V47.3839C39.5742 45.6951 38.2029 44.3238 36.5141 44.3238H26.619Z" fill="#374970" stroke="#374970"/>
<path id="Vector_4" d="M58.5129 61.8067H48.6178C46.1183 61.8067 44.0901 59.7731 44.0901 57.279V47.3839C44.0901 44.8844 46.1237 42.8562 48.6178 42.8562H58.5129C61.0124 42.8562 63.0406 44.8898 63.0406 47.3839V57.279C63.0406 59.7785 61.007 61.8067 58.5129 61.8067ZM48.6178 44.3238C46.929 44.3238 45.5577 45.6951 45.5577 47.3839V57.279C45.5577 58.9678 46.929 60.3391 48.6178 60.3391H58.5129C60.2017 60.3391 61.573 58.9678 61.573 57.279V47.3839C61.573 45.6951 60.2017 44.3238 58.5129 44.3238H48.6178Z" fill="#374970" stroke="#374970"/>
<path id="Vector_5" d="M57.7848 22.2085H49.5553C47.058 22.2085 45.0334 24.233 45.0334 26.7304V34.9598C45.0334 37.4572 47.058 39.4817 49.5553 39.4817H57.7848C60.2821 39.4817 62.3066 37.4572 62.3066 34.9598V26.7304C62.3066 24.233 60.2821 22.2085 57.7848 22.2085Z" fill="#4284F2"/>
<path id="Vector_6" d="M58.5129 40.3758H48.6178C46.1183 40.3758 44.0901 38.3422 44.0901 35.8481V25.953C44.0901 23.4535 46.1237 21.4253 48.6178 21.4253H58.5129C61.0124 21.4253 63.0406 23.4589 63.0406 25.953V35.8481C63.0406 38.3476 61.007 40.3758 58.5129 40.3758ZM48.6178 22.8929C46.929 22.8929 45.5577 24.2642 45.5577 25.953V35.8481C45.5577 37.5369 46.929 38.9082 48.6178 38.9082H58.5129C60.2017 38.9082 61.573 37.5369 61.573 35.8481V25.953C61.573 24.2642 60.2017 22.8929 58.5129 22.8929H48.6178Z" fill="#374970" stroke="#374970"/>
<path id="Vector_7" d="M53.2322 26.5268H48.1181C47.7788 26.5268 47.5012 26.2492 47.5012 25.9099C47.5012 25.5706 47.7788 25.293 48.1181 25.293H53.2322C53.5715 25.293 53.8491 25.5706 53.8491 25.9099C53.8491 26.2492 53.5715 26.5268 53.2322 26.5268Z" fill="white"/>
<path id="Vector_8" d="M57.5508 29.6112H52.4367C52.0974 29.6112 51.8198 29.3336 51.8198 28.9943C51.8198 28.655 52.0974 28.3774 52.4367 28.3774H57.5508C57.8901 28.3774 58.1677 28.655 58.1677 28.9943C58.1677 29.3336 57.8901 29.6112 57.5508 29.6112Z" fill="white"/>
<path id="Vector_9" d="M53.2322 34.5463H48.1181C47.7788 34.5463 47.5012 34.2687 47.5012 33.9294C47.5012 33.5901 47.7788 33.3125 48.1181 33.3125H53.2322C53.5715 33.3125 53.8491 33.5901 53.8491 33.9294C53.8491 34.2687 53.5715 34.5463 53.2322 34.5463Z" fill="white"/>
<path id="Vector_10" d="M58.7842 37.0141H53.6701C53.3308 37.0141 53.0532 36.7365 53.0532 36.3972C53.0532 36.0579 53.3308 35.7803 53.6701 35.7803H58.7842C59.1235 35.7803 59.4011 36.0579 59.4011 36.3972C59.4011 36.7365 59.1235 37.0141 58.7842 37.0141Z" fill="white"/>
<path id="Vector_11" d="M58.6916 36.4834C58.3523 36.4834 58.0747 36.2058 58.0747 35.8665V34.5463C58.0747 34.207 58.3523 33.9294 58.6916 33.9294C59.0309 33.9294 59.3085 34.207 59.3085 34.5463V35.8665C59.3085 36.2058 59.0309 36.4834 58.6916 36.4834Z" fill="white"/>
<path id="Vector_12" d="M53.1398 31.5483C52.8006 31.5483 52.5229 31.2707 52.5229 30.9314V29.6113C52.5229 29.272 52.8006 28.9944 53.1398 28.9944C53.4791 28.9944 53.7567 29.272 53.7567 29.6113V30.9314C53.7567 31.2707 53.4791 31.5483 53.1398 31.5483Z" fill="white"/>
<path id="Vector_13" d="M48.8215 28.4636C48.4822 28.4636 48.2046 28.186 48.2046 27.8467V26.5266C48.2046 26.1873 48.4822 25.9097 48.8215 25.9097C49.1608 25.9097 49.4384 26.1873 49.4384 26.5266V27.8467C49.4384 28.186 49.1608 28.4636 48.8215 28.4636Z" fill="white"/>
<path id="Vector_14" d="M54.9904 27.23C54.6511 27.23 54.3735 26.9524 54.3735 26.6131V25.2929C54.3735 24.9536 54.6511 24.676 54.9904 24.676C55.3297 24.676 55.6073 24.9536 55.6073 25.2929V26.6131C55.6073 26.9524 55.3297 27.23 54.9904 27.23Z" fill="white"/>
<path id="Vector_15" d="M50.0554 32.165C49.7161 32.165 49.4385 31.8874 49.4385 31.5481V30.228C49.4385 29.8887 49.7161 29.6111 50.0554 29.6111C50.3947 29.6111 50.6723 29.8887 50.6723 30.228V31.5481C50.6723 31.8874 50.3947 32.165 50.0554 32.165Z" fill="white"/>
<path id="Vector_16" d="M50.0554 37.7173C49.7161 37.7173 49.4385 37.4397 49.4385 37.1004V35.7802C49.4385 35.4409 49.7161 35.1633 50.0554 35.1633C50.3947 35.1633 50.6723 35.4409 50.6723 35.7802V37.1004C50.6723 37.4397 50.3947 37.7173 50.0554 37.7173Z" fill="white"/>
<path id="Vector_17" d="M56.2241 34.0159C55.8848 34.0159 55.6072 33.7383 55.6072 33.399V32.0788C55.6072 31.7395 55.8848 31.4619 56.2241 31.4619C56.5634 31.4619 56.841 31.7395 56.841 32.0788V33.399C56.841 33.7383 56.5634 34.0159 56.2241 34.0159Z" fill="white"/>
<path id="Vector_18" d="M58.7349 26.5697H57.9885C57.6492 26.5697 57.3716 26.2921 57.3716 25.9528C57.3716 25.6135 57.6492 25.3359 57.9885 25.3359H58.7349C59.0742 25.3359 59.3518 25.6135 59.3518 25.9528C59.3518 26.2921 59.0742 26.5697 58.7349 26.5697Z" fill="white"/>
<path id="Vector_19" d="M49.4815 31.505H48.7351C48.3958 31.505 48.1182 31.2274 48.1182 30.8881C48.1182 30.5488 48.3958 30.2712 48.7351 30.2712H49.4815C49.8208 30.2712 50.0984 30.5488 50.0984 30.8881C50.0984 31.2274 49.8208 31.505 49.4815 31.505Z" fill="white"/>
<path id="Vector_20" d="M57.5013 33.3559H56.7548C56.4155 33.3559 56.1379 33.0783 56.1379 32.739C56.1379 32.3997 56.4155 32.1221 56.7548 32.1221H57.5013C57.8406 32.1221 58.1182 32.3997 58.1182 32.739C58.1182 33.0783 57.8406 33.3559 57.5013 33.3559Z" fill="white"/>
<path id="Vector_21" d="M59.3519 31.505H58.6054C58.2661 31.505 57.9885 31.2274 57.9885 30.8881C57.9885 30.5488 58.2661 30.2712 58.6054 30.2712H59.3519C59.6912 30.2712 59.9688 30.5488 59.9688 30.8881C59.9688 31.2274 59.6912 31.505 59.3519 31.505Z" fill="white"/>
<path id="Vector_22" d="M55.6505 35.2065H54.904C54.5647 35.2065 54.2871 34.9289 54.2871 34.5896C54.2871 34.2503 54.5647 33.9727 54.904 33.9727H55.6505C55.9898 33.9727 56.2674 34.2503 56.2674 34.5896C56.2674 34.9289 55.9898 35.2065 55.6505 35.2065Z" fill="white"/>
<path id="Vector_23" d="M54.6633 33.1153C54.324 33.1153 54.0464 32.8377 54.0464 32.4984V31.7519C54.0464 31.4126 54.324 31.135 54.6633 31.135C55.0026 31.135 55.2802 31.4126 55.2802 31.7519V32.4984C55.2802 32.8377 55.0026 33.1153 54.6633 33.1153Z" fill="white"/>
<path id="Vector_24" d="M50.9621 28.7969C50.6228 28.7969 50.3452 28.5193 50.3452 28.18V27.4335C50.3452 27.0943 50.6228 26.8167 50.9621 26.8167C51.3014 26.8167 51.579 27.0943 51.579 27.4335V28.18C51.579 28.5193 51.3014 28.7969 50.9621 28.7969Z" fill="white"/>
<path id="Vector_25" d="M52.196 26.3294C51.8567 26.3294 51.5791 26.0518 51.5791 25.7125V24.966C51.5791 24.6267 51.8567 24.3491 52.196 24.3491C52.5353 24.3491 52.8129 24.6267 52.8129 24.966V25.7125C52.8129 26.0518 52.5353 26.3294 52.196 26.3294Z" fill="white"/>
<path id="Vector_26" d="M56.5144 28.7969C56.1751 28.7969 55.8975 28.5193 55.8975 28.18V27.4335C55.8975 27.0943 56.1751 26.8167 56.5144 26.8167C56.8537 26.8167 57.1313 27.0943 57.1313 27.4335V28.18C57.1313 28.5193 56.8537 28.7969 56.5144 28.7969Z" fill="white"/>
<path id="Vector_27" d="M56.5144 30.6475C56.1751 30.6475 55.8975 30.3699 55.8975 30.0306V29.2841C55.8975 28.9448 56.1751 28.6672 56.5144 28.6672C56.8537 28.6672 57.1313 28.9448 57.1313 29.2841V30.0306C57.1313 30.3699 56.8537 30.6475 56.5144 30.6475Z" fill="white"/>
<path id="Vector_28" d="M58.9819 29.4138C58.6426 29.4138 58.365 29.1362 58.365 28.7969V28.0505C58.365 27.7112 58.6426 27.4336 58.9819 27.4336C59.3212 27.4336 59.5988 27.7112 59.5988 28.0505V28.7969C59.5988 29.1362 59.3212 29.4138 58.9819 29.4138Z" fill="white"/>
<path id="Vector_29" d="M47.2607 30.6475C46.9214 30.6475 46.6438 30.3699 46.6438 30.0306V29.2841C46.6438 28.9448 46.9214 28.6672 47.2607 28.6672C47.6 28.6672 47.8776 28.9448 47.8776 29.2841V30.0306C47.8776 30.3699 47.6 30.6475 47.2607 30.6475Z" fill="white"/>
<path id="Vector_30" d="M48.2479 32.7389H47.5014C47.1621 32.7389 46.8845 32.4613 46.8845 32.122C46.8845 31.7827 47.1621 31.5051 47.5014 31.5051H48.2479C48.5872 31.5051 48.8648 31.7827 48.8648 32.122C48.8648 32.4613 48.5872 32.7389 48.2479 32.7389Z" fill="white"/>
<path id="Vector_31" d="M51.8196 36.3971H49.969C49.6297 36.3971 49.3521 36.1195 49.3521 35.7802C49.3521 35.4409 49.6297 35.1633 49.969 35.1633H51.8196C52.1589 35.1633 52.4365 35.4409 52.4365 35.7802C52.4365 36.1195 52.1589 36.3971 51.8196 36.3971Z" fill="white"/>
</g>
</svg>
