<svg width="37" height="37" viewBox="0 0 37 37" fill="none" xmlns="http://www.w3.org/2000/svg">
<g id="Capa_1" clip-path="url(#clip0_478_6033)">
<path id="Vector" d="M27.8628 9.41359L18.5688 18.7086C18.5306 18.7468 18.4694 18.7468 18.4311 18.7086L9.1371 9.41359C9.09883 9.37533 9.09883 9.3141 9.1371 9.27583L16.8509 1.56511C17.7615 0.654363 19.2384 0.654363 20.1453 1.56511L27.859 9.27966C27.8973 9.31793 27.8973 9.37915 27.859 9.41742L27.8628 9.41359Z" fill="#0F55A8"/>
<path id="Vector_2" d="M18.5 37C17.2718 37 16.1162 36.5255 15.2515 35.6607L1.34302 21.7469C-0.447673 19.956 -0.447673 17.044 1.34302 15.2531L15.2553 1.33933C16.1201 0.474506 17.2718 0 18.5038 0C19.7359 0 20.8876 0.474506 21.7485 1.33933L35.6608 15.2531C37.4515 17.044 37.4515 19.956 35.6608 21.7469L21.7485 35.6607C20.8838 36.5255 19.7321 37 18.5038 37H18.5ZM18.5 1.53066C17.6774 1.53066 16.9121 1.84828 16.3343 2.42228L2.42585 16.336C1.23206 17.5299 1.23206 19.4739 2.42585 20.664L16.3382 34.5777C16.9121 35.1517 17.6812 35.4693 18.5038 35.4693C19.3265 35.4693 20.0917 35.1517 20.6695 34.5777L34.5818 20.664C35.7756 19.4701 35.7756 17.5261 34.5818 16.336L20.6657 2.42228C20.0917 1.84828 19.3226 1.53066 18.5 1.53066Z" fill="#374970"/>
<path id="Vector_3" d="M27.9203 29.1668C27.7251 29.1668 27.5338 29.0941 27.3846 28.9449L7.92419 9.76181C7.62191 9.46333 7.61809 8.98117 7.91653 8.67886C8.21116 8.37656 8.69709 8.37273 8.99937 8.67121L28.4598 27.8581C28.762 28.1566 28.7659 28.6387 28.4674 28.941C28.3182 29.0941 28.1192 29.1706 27.9241 29.1706L27.9203 29.1668Z" fill="#374970"/>
<path id="Vector_4" d="M9.07974 29.1668C8.88077 29.1668 8.68563 29.0903 8.53641 28.9372C8.23796 28.6349 8.24178 28.1528 8.54406 27.8543L28.0045 8.6674C28.3067 8.36892 28.7888 8.37274 29.0873 8.67505C29.3857 8.97736 29.3819 9.45952 29.0796 9.758L9.61924 28.9449C9.47002 29.0903 9.27488 29.1668 9.08356 29.1668H9.07974Z" fill="#374970"/>
</g>
<defs>
<clipPath id="clip0_478_6033">
<rect width="37" height="37" fill="white"/>
</clipPath>
</defs>
</svg>
