<svg width="32" height="31" viewBox="0 0 32 31" fill="none" xmlns="http://www.w3.org/2000/svg">
<g id="Capa_1" clip-path="url(#clip0_478_6008)">
<path id="Vector" d="M0.459961 2.59999L0.459961 4.43487C0.459961 5.59034 1.30829 6.52704 2.35476 6.52704L29.6454 6.52704C30.6918 6.52704 31.5402 5.59034 31.5402 4.43487V2.59999C31.5402 1.44452 30.6918 0.507819 29.6454 0.507819L2.35476 0.507819C1.30829 0.507819 0.459961 1.44452 0.459961 2.59999Z" fill="#0F55A8"/>
<path id="Vector_2" d="M29.6453 7.03484H2.3547C1.05471 7.03484 0 5.86688 0 4.43486V2.59998C0 1.16796 1.05778 0 2.3547 0H29.6453C30.9453 0 32 1.16796 32 2.59998V4.43486C32 5.87026 30.9422 7.03484 29.6453 7.03484ZM2.3547 1.01562C1.56367 1.01562 0.919804 1.72655 0.919804 2.59998V4.43486C0.919804 5.30829 1.56367 6.01922 2.3547 6.01922H29.6453C30.4363 6.01922 31.0802 5.30829 31.0802 4.43486V2.59998C31.0802 1.72655 30.4363 1.01562 29.6453 1.01562H2.3547Z" fill="#374970"/>
<path id="Vector_3" d="M29.6453 19.0157H2.3547C1.05471 19.0157 0 17.8478 0 16.4158V14.5809C0 13.1455 1.05778 11.9809 2.3547 11.9809H29.6453C30.9453 11.9809 32 13.1489 32 14.5809V16.4158C32 17.8512 30.9422 19.0157 29.6453 19.0157ZM2.3547 12.9965C1.56367 12.9965 0.919804 13.7074 0.919804 14.5809V16.4158C0.919804 17.2892 1.56367 18.0001 2.3547 18.0001H29.6453C30.4363 18.0001 31.0802 17.2892 31.0802 16.4158V14.5809C31.0802 13.7074 30.4363 12.9965 29.6453 12.9965H2.3547Z" fill="#374970"/>
<path id="Vector_4" d="M29.6453 31H2.3547C1.05471 31 0 29.832 0 28.4V26.5651C0 25.1297 1.05778 23.9651 2.3547 23.9651H29.6453C30.9453 23.9651 32 25.1331 32 26.5651V28.4C32 29.8354 30.9422 31 29.6453 31ZM2.3547 24.9808C1.56367 24.9808 0.919804 25.6917 0.919804 26.5651V28.4C0.919804 29.2734 1.56367 29.9844 2.3547 29.9844H29.6453C30.4363 29.9844 31.0802 29.2734 31.0802 28.4V26.5651C31.0802 25.6917 30.4363 24.9808 29.6453 24.9808H2.3547Z" fill="#374970"/>
</g>
<defs>
<clipPath id="clip0_478_6008">
<rect width="32" height="31" fill="white"/>
</clipPath>
</defs>
</svg>
