<svg width="90" height="90" viewBox="0 0 90 90" fill="none" xmlns="http://www.w3.org/2000/svg">
<g id="Group 1142">
<path id="Vector" d="M45 90C69.8528 90 90 69.8528 90 45C90 20.1472 69.8528 0 45 0C20.1472 0 0 20.1472 0 45C0 69.8528 20.1472 90 45 90Z" fill="#EDF3FF"/>
<path id="Vector_2" d="M34.0344 16.7756H56.8124C62.5035 16.7756 67.1227 21.3948 67.1227 27.0859V57.1433H34.0344V16.7756Z" fill="#4284F2"/>
<path id="Vector_3" d="M54.9727 66.2824L30.8448 66.2559C28.7536 66.203 27.1191 65.5147 25.9544 64.2111C24.0816 62.1199 24.1742 59.1684 24.2007 58.6721V28.7537C24.2007 28.0258 24.7963 27.4302 25.5242 27.4302C26.2522 27.4302 26.8477 28.0258 26.8477 28.7537V58.7118C26.8477 58.7515 26.8477 58.7846 26.8477 58.8243C26.8477 58.8441 26.6955 61.0743 27.9397 62.4508C28.608 63.1919 29.5742 63.5691 30.8845 63.6022L54.9794 63.6221C55.7073 63.6221 56.3029 64.2177 56.3029 64.9456C56.3029 65.6736 55.7073 66.2691 54.9794 66.2691L54.9727 66.2824Z" fill="#374970"/>
<path id="Vector_4" d="M47.6934 74.8854L23.5655 74.8589C21.4743 74.806 19.8398 74.1178 18.6751 72.8141C16.8023 70.7229 16.8949 67.7714 16.9214 67.2751V37.3567C16.9214 36.6288 17.517 36.0332 18.2449 36.0332C18.9729 36.0332 19.5684 36.6288 19.5684 37.3567V67.3148C19.5684 67.3545 19.5684 67.3876 19.5684 67.4273C19.5684 67.4472 19.4162 69.6773 20.6604 71.0538C21.3287 71.795 22.2949 72.1722 23.6052 72.2053L47.7001 72.2251C48.428 72.2251 49.0236 72.8207 49.0236 73.5486C49.0236 74.2766 48.428 74.8722 47.7001 74.8722L47.6934 74.8854Z" fill="#374970"/>
<path id="Vector_5" d="M68.4462 58.4669H32.7109V15.4521H56.8124C63.2249 15.4521 68.4462 20.6735 68.4462 27.086V58.4669ZM35.358 55.8198H65.7992V27.086C65.7992 22.1294 61.769 18.0992 56.8124 18.0992H35.358V55.8198Z" fill="#374970"/>
<path id="Vector_6" d="M56.5347 17.636V23.4331C56.5347 23.4331 55.8729 31.3412 67.1229 30.0176C67.1229 30.0176 67.1229 16.7823 56.5347 17.636Z" fill="white"/>
<path id="Vector_7" d="M64.7203 31.4869C61.5571 31.4869 59.1152 30.6729 57.4409 29.0516C55.1446 26.8281 55.1909 23.8964 55.224 23.3869V17.6295C55.2108 16.9413 55.7402 16.3656 56.4284 16.306C59.5453 16.0545 62.1461 16.8751 64.1711 18.7413C68.3997 22.6391 68.4461 29.7067 68.4461 30.0045C68.4461 30.6729 67.9431 31.242 67.2747 31.3214C66.3747 31.4273 65.5211 31.4803 64.7203 31.4803V31.4869ZM57.8578 18.9266V23.4332C57.8644 23.4729 57.8578 23.506 57.8578 23.5457C57.8578 23.6251 57.7255 25.6766 59.3005 27.1788C60.6042 28.4229 62.8078 28.9788 65.7196 28.8134C65.5211 26.8545 64.8262 22.9567 62.3644 20.6935C61.1468 19.5751 59.6644 18.9928 57.8512 18.9266H57.8578Z" fill="#374970"/>
<path id="Vector_8" d="M57.2691 37.8794C56.9911 38.528 56.6139 39.0905 56.1308 39.5669C55.6477 40.0434 55.072 40.4206 54.4102 40.7052C53.7418 40.9897 53.0271 41.1552 52.2661 41.2015C52.1271 41.2147 51.9154 41.228 51.6242 41.2346C51.333 41.2412 51.022 41.2478 50.6845 41.2478H49.1492V42.214C49.1492 42.6706 49.1426 43.1603 49.1293 43.6831C49.1161 44.2059 49.0764 44.689 49.0168 45.139C48.9573 45.589 48.8713 45.8934 48.7654 46.0456C48.5999 46.2772 48.4014 46.4758 48.1698 46.6544C47.9382 46.8331 47.6735 46.9191 47.3691 46.9191C46.8463 46.9191 46.4095 46.7338 46.0521 46.3699C45.6948 46.0059 45.5161 45.5691 45.5161 45.0596V30.2096L49.3014 30.1831C50.7838 30.1831 52.2264 30.3353 53.6161 30.6397C54.6418 30.8515 55.522 31.328 56.2566 32.0493C56.9911 32.7772 57.4477 33.6971 57.633 34.8155C57.6793 35.1199 57.6992 35.4177 57.6992 35.7088C57.6992 36.503 57.5602 37.2243 57.2889 37.8794H57.2691ZM49.1691 38.0515H51.7367C52.061 38.0515 52.3588 37.9919 52.6433 37.8662C52.9279 37.7471 53.1727 37.575 53.3911 37.3633C53.6029 37.1515 53.7749 36.9066 53.8941 36.6287C54.0132 36.3508 54.0793 36.053 54.0793 35.7353C54.0793 35.4177 54.0198 35.1133 53.8941 34.8287C53.7683 34.5441 53.6029 34.2993 53.3911 34.0941C53.1793 33.889 52.9279 33.7235 52.6433 33.5978C52.3588 33.4787 52.061 33.4125 51.7367 33.4125H49.1691V38.0515Z" fill="white"/>
</g>
</svg>
