<svg width="32" height="30" viewBox="0 0 32 30" fill="none" xmlns="http://www.w3.org/2000/svg">
<g id="Capa_1" clip-path="url(#clip0_478_6025)">
<path id="Vector" d="M6.72566 30H2.83752C1.2715 30 0 28.7188 0 27.1472V13.6206C0 12.0461 1.27434 10.7678 2.83752 10.7678H6.72566C8.29168 10.7678 9.56319 12.049 9.56319 13.6206V27.1472C9.56319 28.7217 8.28885 30 6.72566 30ZM2.83752 11.9038C1.89735 11.9038 1.13274 12.6725 1.13274 13.6177V27.1444C1.13274 28.0896 1.89735 28.8583 2.83752 28.8583H6.72566C7.66584 28.8583 8.43044 28.0896 8.43044 27.1444V13.6177C8.43044 12.6725 7.66584 11.9038 6.72566 11.9038H2.83752Z" fill="#374970"/>
<path id="Vector_2" d="M17.6933 30H13.7401C12.1939 30 10.9365 28.7359 10.9365 27.1814V7.39963C10.9365 5.84511 12.1939 4.58099 13.7401 4.58099H17.6933C19.2395 4.58099 20.4969 5.84511 20.4969 7.39963V27.1785C20.4969 28.733 19.2395 29.9971 17.6933 29.9971V30ZM13.7401 5.71984C12.8197 5.71984 12.0693 6.47432 12.0693 7.39963V27.1785C12.0693 28.1038 12.8197 28.8583 13.7401 28.8583H17.6933C18.6137 28.8583 19.3641 28.1038 19.3641 27.1785V7.39963C19.3641 6.47432 18.6137 5.71984 17.6933 5.71984H13.7401Z" fill="#374970"/>
<path id="Vector_3" d="M29.6835 0.569427H24.7533C23.7867 0.569427 23.0032 1.35719 23.0032 2.32894V27.6711C23.0032 28.6428 23.7867 29.4306 24.7533 29.4306H29.6835C30.6501 29.4306 31.4336 28.6428 31.4336 27.6711V2.32894C31.4336 1.35719 30.6501 0.569427 29.6835 0.569427Z" fill="#0F55A8"/>
<path id="Vector_4" d="M29.6836 30H24.7562C23.479 30 22.4397 28.9551 22.4397 27.6711V2.32894C22.4397 1.04489 23.479 0 24.7562 0H29.6836C30.9608 0 32.0001 1.04489 32.0001 2.32894V27.6711C32.0001 28.9551 30.9608 30 29.6836 30ZM24.7533 1.13884C24.0992 1.13884 23.5696 1.6741 23.5696 2.32894V27.6711C23.5696 28.3287 24.102 28.8612 24.7533 28.8612H29.6808C30.3349 28.8612 30.8645 28.3259 30.8645 27.6711V2.32894C30.8645 1.67125 30.3321 1.13884 29.6808 1.13884H24.7533Z" fill="#374970"/>
</g>
<defs>
<clipPath id="clip0_478_6025">
<rect width="32" height="30" fill="white"/>
</clipPath>
</defs>
</svg>
