<svg width="137" height="48" viewBox="0 0 137 48" fill="none" xmlns="http://www.w3.org/2000/svg">
<g id="Logos">
<g id="Group">
<path id="Vector" d="M49.8125 20.6815C49.8125 18.5649 50.7176 16.8855 53.3773 16.8855C56.4826 16.8855 59.9555 16.8994 60.9107 17.6876V20.2609H54.8868C54.2212 20.2609 54.0485 20.4225 54.0485 20.9906V21.4028C54.0485 22.0684 54.4161 22.0795 54.8868 22.0795H57.8444C60.596 22.0795 61.5903 23.6865 61.5903 25.7028V27.1622C61.5903 29.9778 59.8859 30.8551 58.2316 30.8551C55.1458 30.8551 51.322 30.8356 50.3806 30.0168V27.4546H56.6441C56.9727 27.4546 57.3543 27.3571 57.3543 26.7778V26.3656C57.3543 25.9061 57.2373 25.661 56.6441 25.661H53.7644C51.3359 25.661 49.8125 24.5303 49.8125 21.8707V20.6815Z" fill="#23256E"/>
<path id="Vector_2" d="M65.0742 12.4294C65.0742 12.0423 65.2803 11.7833 65.6953 11.7833H68.9231C69.3102 11.7833 69.4968 12.0674 69.4968 12.4294V15.0446C69.4968 15.4317 69.2824 15.6378 68.9231 15.6378H65.6953C65.3332 15.6378 65.0742 15.4066 65.0742 15.0446V12.4294ZM65.1578 17.0136H69.3938V30.7269H65.1578V17.0136Z" fill="#23256E"/>
<path id="Vector_3" d="M73.3401 10.5328H77.5761V21.5085H78.2222L81.6255 17.0135H86.9003L82.1017 23.0459L86.9003 30.7297H81.9095L78.2222 24.5832H77.5761V30.7297H73.3401V10.5328Z" fill="#23256E"/>
<path id="Vector_4" d="M89.2174 10.505H93.4534V25.0706C93.4534 26.9699 93.8934 27.3682 94.5367 27.6523C94.5367 27.6523 95.8791 28.1953 96.0601 28.1953V30.7269H92.8184C90.4818 30.7269 89.2146 29.4876 89.2146 25.8448V10.505H89.2174Z" fill="#23256E"/>
<path id="Vector_5" d="M99.1877 17.0135H103.424V26.0648C103.424 27.3041 103.889 27.6913 104.644 27.6913C105.877 27.6913 106.593 27.3682 107.323 26.6079V17.0135H111.559V30.7269H108.086L107.323 29.3205C106.039 30.1086 105.32 30.9608 103.229 30.9608C99.8701 30.9608 99.1877 28.7273 99.1877 25.9896V17.0135Z" fill="#23256E"/>
<path id="Vector_6" d="M115.561 17.0135H119.034L119.797 18.4339C120.888 17.5677 121.766 16.7991 123.846 16.7991C125.623 16.7991 126.759 17.4313 127.314 18.484C128.503 17.6652 129.962 16.7991 132.026 16.7991C135.293 16.7991 136.067 18.9491 136.067 21.7759V30.7241H131.831V21.7007C131.831 20.5059 131.371 20.0659 130.611 20.0659C129.461 20.0659 128.57 20.3054 127.873 21.0072C127.873 21.1632 127.893 21.5893 127.893 21.7619V30.7241H123.657V21.7007C123.657 20.5059 123.192 20.0659 122.431 20.0659C121.217 20.0659 120.526 20.3834 119.797 21.1437V30.7241H115.561V17.0135Z" fill="#23256E"/>
</g>
<g id="Group_2">
<path id="Vector_7" d="M0 13.4516C0 12.474 0.6684 11.2737 1.51504 10.7835L19.456 0.36762C20.2999 -0.12254 21.6785 -0.12254 22.5251 0.36762L40.4772 10.7835C41.3211 11.2737 42.0145 12.474 42.0145 13.4516V34.2973C42.0145 35.2748 41.3183 36.4752 40.4744 36.9653L22.5195 47.3813C21.6729 47.8714 20.2887 47.8714 19.4449 47.3813L1.51504 36.9653C0.671185 36.4752 0 35.2748 0 34.2973V13.4516Z" fill="#D6DAEA"/>
<path id="Vector_8" d="M21.7955 25.7446C22.631 25.235 23.3133 24.0207 23.3133 23.0432L23.3272 9.43842C23.3272 8.46089 22.6421 8.07099 21.8011 8.5695L10.001 15.571C9.15993 16.0695 8.48318 17.2782 8.49153 18.2557L8.64192 31.9775C8.65306 32.955 9.34374 33.3365 10.1792 32.8297L21.7955 25.7446Z" fill="#23256E"/>
<g id="Group_3" opacity="0.9">
<path id="Vector_9" d="M27.3209 28.6131C28.1564 28.1035 28.8387 26.8892 28.8387 25.9117L28.8526 12.307C28.8526 11.3294 28.1675 10.9395 27.3264 11.438L15.5264 18.4395C14.6853 18.938 14.0086 20.1467 14.0169 21.1243L14.1645 34.8432C14.1757 35.8207 14.8663 36.2023 15.7018 35.6954L27.3209 28.6131Z" fill="#0F55A8"/>
</g>
<g id="Group_4" opacity="0.9">
<path id="Vector_10" d="M32.7434 31.6627C33.5789 31.1531 34.2612 29.9388 34.2612 28.9613L34.2751 15.3565C34.2751 14.379 33.59 13.9891 32.749 14.4876L20.9517 21.4891C20.1106 21.9876 19.4339 23.1963 19.4422 24.1738L19.5898 37.8928C19.601 38.8703 20.2916 39.2518 21.1271 38.745L32.7434 31.6627Z" fill="#3FBCB8"/>
</g>
</g>
</g>
</svg>
