<svg width="90" height="90" viewBox="0 0 90 90" fill="none" xmlns="http://www.w3.org/2000/svg">
<g id="Group 1150">
<path id="Vector" d="M45 90C69.8528 90 90 69.8528 90 45C90 20.1472 69.8528 0 45 0C20.1472 0 0 20.1472 0 45C0 69.8528 20.1472 90 45 90Z" fill="#EDF3FF"/>
<path id="Vector_2" d="M17.2061 33.7302H38.5744C44.6759 33.7302 49.6259 38.6802 49.6259 44.7817V71.5501H17.2061V33.7302Z" fill="white"/>
<path id="Vector_3" d="M69.5318 18.1191H44.7289C41.4651 18.1191 38.8193 20.7649 38.8193 24.0287V41.0294C38.8193 44.2932 41.4651 46.939 44.7289 46.939H69.5318C72.7956 46.939 75.4414 44.2932 75.4414 41.0294V24.0287C75.4414 20.7649 72.7956 18.1191 69.5318 18.1191Z" fill="#374970"/>
<path id="Vector_4" d="M69.7305 20.5212H44.5305C42.7031 20.5212 41.2217 22.0026 41.2217 23.8301V41.8301C41.2217 43.6575 42.7031 45.1389 44.5305 45.1389H69.7305C71.5579 45.1389 73.0393 43.6575 73.0393 41.8301V23.8301C73.0393 22.0026 71.5579 20.5212 69.7305 20.5212Z" fill="#4284F2"/>
<path id="Vector_5" d="M52.4449 25.2993C51.6375 26.1133 50.8302 26.9273 50.0162 27.7412C49.7978 27.9596 49.5331 27.9927 49.3214 27.7942C48.8515 27.3574 48.3949 26.9074 47.9581 26.4309C47.7397 26.1927 47.8059 25.9015 48.0574 25.6699C48.2162 25.5243 48.5934 25.5508 48.7721 25.7295C49.05 25.9942 49.3147 26.2721 49.6059 26.5633C50.2875 25.8817 50.9559 25.2133 51.6177 24.5449C51.9817 24.1809 52.2464 24.1942 52.5905 24.6045C52.6037 24.6243 52.617 24.6442 52.6368 24.664C52.7427 24.9221 52.5839 25.1074 52.4515 25.2993L52.4449 25.3059V25.2993Z" fill="white"/>
<path id="Vector_6" d="M52.4449 31.2683C51.6375 32.0823 50.8302 32.8962 50.0162 33.7102C49.7978 33.9286 49.5331 33.9617 49.3214 33.7632C48.8515 33.3264 48.3949 32.8764 47.9581 32.3999C47.7397 32.1617 47.8059 31.8705 48.0574 31.6389C48.2162 31.4933 48.5934 31.5198 48.7721 31.6985C49.05 31.9632 49.3147 32.2411 49.6059 32.5323C50.2875 31.8507 50.9559 31.1823 51.6177 30.5139C51.9817 30.1499 52.2464 30.1632 52.5905 30.5735C52.6037 30.5933 52.617 30.6132 52.6368 30.633C52.7427 30.8911 52.5839 31.0764 52.4515 31.2683L52.4449 31.2749V31.2683Z" fill="white"/>
<path id="Vector_7" d="M52.4449 37.7073C51.6375 38.5212 50.8302 39.3352 50.0162 40.1492C49.7978 40.3676 49.5331 40.4007 49.3214 40.2021C48.8515 39.7654 48.3949 39.3154 47.9581 38.8389C47.7397 38.6007 47.8059 38.3095 48.0574 38.0779C48.2162 37.9323 48.5934 37.9587 48.7721 38.1374C49.05 38.4021 49.3147 38.6801 49.6059 38.9712C50.2875 38.2896 50.9559 37.6212 51.6177 36.9529C51.9817 36.5889 52.2464 36.6021 52.5905 37.0124C52.6037 37.0323 52.617 37.0521 52.6368 37.072C52.7427 37.3301 52.5839 37.5154 52.4515 37.7073L52.4449 37.7139V37.7073Z" fill="white"/>
<path id="Vector_8" d="M66.9839 26.6691H56.5743C56.217 26.6691 55.9258 26.378 55.9258 26.0206C55.9258 25.6632 56.217 25.3721 56.5743 25.3721H66.9839C67.3412 25.3721 67.6324 25.6632 67.6324 26.0206C67.6324 26.378 67.3412 26.6691 66.9839 26.6691Z" fill="white"/>
<path id="Vector_9" d="M66.9839 33.1808H56.5743C56.217 33.1808 55.9258 32.8897 55.9258 32.5323C55.9258 32.175 56.217 31.8838 56.5743 31.8838H66.9839C67.3412 31.8838 67.6324 32.175 67.6324 32.5323C67.6324 32.8897 67.3412 33.1808 66.9839 33.1808Z" fill="white"/>
<path id="Vector_10" d="M66.9839 39.686H56.5743C56.217 39.686 55.9258 39.3948 55.9258 39.0374C55.9258 38.6801 56.217 38.3889 56.5743 38.3889H66.9839C67.3412 38.3889 67.6324 38.6801 67.6324 39.0374C67.6324 39.3948 67.3412 39.686 66.9839 39.686Z" fill="white"/>
<path id="Vector_11" d="M38.4488 58.6455C38.1841 59.1947 37.8333 59.6778 37.3966 60.0947C36.9532 60.5116 36.4503 60.8425 35.8811 61.094C35.312 61.3455 34.7297 61.4778 34.1275 61.5043V62.9999H33.4194V61.5241C33.0488 61.5241 32.6517 61.4911 32.2414 61.4249C31.8245 61.3587 31.4142 61.2661 31.0105 61.1469C30.6069 61.0278 30.223 60.8756 29.8525 60.7036C29.4819 60.5315 29.1576 60.3264 28.873 60.1014L29.912 57.6065C30.1569 57.7322 30.415 57.8712 30.6863 58.0102C30.9642 58.1491 31.2488 58.2815 31.54 58.394C31.8311 58.5065 32.1289 58.5992 32.4201 58.6719C32.7113 58.7447 33.0091 58.7778 33.3003 58.7778L33.4128 58.758V55.4756C33.1679 55.4094 32.9297 55.3433 32.6848 55.2771C32.44 55.2043 32.1951 55.1249 31.937 55.0389C31.5267 54.8999 31.1429 54.7278 30.7855 54.5293C30.4282 54.3308 30.1172 54.0925 29.8458 53.808C29.5745 53.53 29.3628 53.2058 29.2039 52.8418C29.0451 52.4778 28.9657 52.0609 28.9657 51.5844C28.9657 51.0087 29.098 50.4727 29.3561 49.9697C29.6208 49.4734 29.9583 49.0367 30.3819 48.6727C30.8054 48.3087 31.2819 48.0175 31.8113 47.7992C32.3407 47.5808 32.8833 47.4616 33.4326 47.4352C33.4326 47.4087 33.4326 47.3227 33.426 47.1771C33.4194 47.0315 33.4128 46.8727 33.4061 46.7072C33.4061 46.5418 33.4061 46.383 33.4061 46.2374C33.4061 46.0918 33.426 45.9991 33.4525 45.9594C33.4789 45.7543 33.5782 45.655 33.7569 45.655C33.8561 45.655 33.9355 45.6881 33.9885 45.7543C34.0414 45.8205 34.0745 45.8999 34.0944 45.9925C34.1142 46.0852 34.1208 46.1911 34.1208 46.2903V46.5418C34.1208 46.5418 34.1473 46.6609 34.1672 46.8197C34.187 46.9786 34.2003 47.1175 34.2135 47.2433C34.2267 47.3624 34.2333 47.4418 34.2333 47.4616C34.2598 47.4616 34.3855 47.4881 34.6172 47.5411C34.8488 47.594 35.1466 47.6734 35.5172 47.7793C35.8878 47.8852 36.2517 48.0241 36.6025 48.183C36.9532 48.3418 37.2576 48.5403 37.5157 48.7653C37.7738 48.9969 37.8995 49.2484 37.8995 49.533C37.8995 49.9036 37.7804 50.2146 37.5355 50.4727C37.2907 50.7308 36.9863 50.8565 36.6157 50.8565C36.4635 50.8565 36.2848 50.8234 36.0797 50.7506C35.8745 50.6778 35.6628 50.605 35.4444 50.519C35.226 50.433 35.0076 50.3536 34.7826 50.2675C34.5576 50.1881 34.3458 50.1219 34.1407 50.0889L34.1208 52.7161C34.187 52.7425 34.2466 52.7624 34.3128 52.7756C34.3789 52.7889 34.4385 52.8087 34.5047 52.8352C35.0142 52.9874 35.5304 53.1661 36.04 53.3712C36.5495 53.5764 37.0128 53.8344 37.4297 54.1389C37.8466 54.4433 38.1841 54.8205 38.4488 55.2705C38.7135 55.7205 38.8392 56.2565 38.8392 56.8852C38.8392 57.5139 38.7069 58.1028 38.4488 58.6521V58.6455ZM33.4723 49.9565C33.0885 49.9433 32.7973 50.0094 32.5922 50.1484C32.4532 50.2543 32.3275 50.4065 32.215 50.6183C32.1091 50.83 32.0429 51.0153 32.0297 51.1874C32.0297 51.3793 32.076 51.5447 32.162 51.6837C32.2547 51.8227 32.3672 51.9484 32.5061 52.0477C32.6451 52.1536 32.7973 52.2462 32.9694 52.3256C33.1348 52.4116 33.287 52.4778 33.4326 52.5241V50.5322C33.4326 50.5322 33.4194 50.4793 33.426 50.38C33.426 50.2808 33.4392 50.1881 33.4525 50.1021C33.4657 50.0161 33.4723 49.9697 33.4723 49.9565ZM35.5172 56.5344C35.4245 56.3822 35.2988 56.2499 35.1532 56.144C35.0076 56.0381 34.8422 55.9455 34.6569 55.8727C34.4716 55.7999 34.2929 55.7337 34.1275 55.6741V58.7646C34.5245 58.6852 34.8753 58.4933 35.1929 58.1822C35.5039 57.8712 35.6628 57.5006 35.6628 57.0771C35.6628 56.8719 35.6164 56.6933 35.5172 56.5411V56.5344Z" fill="#4284F2"/>
<path id="Vector_12" d="M49.8837 72.3639H17.4639V33.3396H39.3286C45.1455 33.3396 49.8837 38.0712 49.8837 43.8947V72.3639ZM19.8661 69.9617H47.4815V43.8947C47.4815 39.4014 43.822 35.7418 39.3286 35.7418H19.8661V69.9617Z" fill="#374970"/>
<path id="Vector_13" d="M39.077 35.3183V40.5794C39.077 40.5794 38.4748 47.7529 48.6858 46.5551C48.6858 46.5551 48.6858 34.5507 39.077 35.325V35.3183Z" fill="white"/>
<path id="Vector_14" d="M46.5022 47.8852C43.6302 47.8852 41.4133 47.144 39.8978 45.6749C37.8133 43.6565 37.8596 41.0028 37.8861 40.5396V35.3183C37.8794 34.6896 38.3559 34.1734 38.9846 34.1205C41.8103 33.8889 44.1728 34.6367 46.0125 36.3308C49.8442 39.8646 49.8905 46.2771 49.8905 46.5484C49.8905 47.1572 49.4339 47.6668 48.8317 47.7396C48.0177 47.8389 47.2434 47.8852 46.5089 47.8852H46.5022ZM40.2817 36.4896V40.5793C40.2883 40.6124 40.2817 40.6455 40.2817 40.6852C40.2817 40.758 40.1625 42.6242 41.5919 43.9808C42.7765 45.1058 44.775 45.6153 47.4155 45.4631C47.2368 43.683 46.6081 40.1492 44.3714 38.0977C43.2662 37.0852 41.9228 36.5558 40.2817 36.4962V36.4896Z" fill="#374970"/>
</g>
</svg>
