<svg width="90" height="90" viewBox="0 0 90 90" fill="none" xmlns="http://www.w3.org/2000/svg">
<g id="Group 1088">
<path id="Vector" d="M45 90C69.8528 90 90 69.8528 90 45C90 20.1472 69.8528 0 45 0C20.1472 0 0 20.1472 0 45C0 69.8528 20.1472 90 45 90Z" fill="#EDF3FF"/>
<path id="Vector_2" d="M17.5961 27.1059C18.238 26.5103 18.8005 25.7625 19.5483 25.3655C20.2961 24.9684 21.2291 24.7368 22.0828 24.7368C34.6365 24.6971 47.1902 24.7037 59.7505 24.7236C60.4387 24.7236 61.1336 24.7699 61.7556 25.1934C62.2321 25.5177 62.8144 25.6831 63.3041 25.9875C64.1777 26.5302 64.5019 27.45 64.6939 28.3765C64.8461 29.1243 64.8593 29.9184 64.8593 30.686C64.8725 39.4478 64.8593 48.2096 64.8593 56.9713C64.8593 57.3419 64.8593 57.7125 64.8593 58.0831C64.813 58.4338 64.7733 58.778 64.7269 59.1287C64.4556 59.6713 64.2041 60.2272 63.913 60.7566C63.4828 61.5508 62.7086 61.9544 61.9211 62.2522C61.3983 62.4508 60.8755 62.6228 60.2468 62.6096C56.4549 62.5368 52.663 62.5765 48.8644 62.5765C48.8049 62.5765 48.7387 62.5963 48.6328 62.6096V66.15C50.0027 66.15 51.3461 66.1368 52.6961 66.1566C53.2056 66.1633 53.7218 66.2228 54.2181 66.3287C54.9394 66.4743 55.2439 67.0566 55.1512 68.003C55.0983 68.5588 54.463 69.1743 53.9137 69.2008C53.6556 69.214 53.3909 69.2008 53.1262 69.2008C44.8608 69.2008 36.6019 69.2008 28.3365 69.2008C27.3836 69.2008 26.7615 68.625 26.7549 67.7316C26.7416 66.8184 27.3439 66.1831 28.31 66.1699C29.8586 66.1434 31.4071 66.1633 32.9556 66.1566C33.1078 66.1566 33.26 66.1566 33.4586 66.1566V62.5765C33.2071 62.5765 32.9622 62.5765 32.7108 62.5765C28.8725 62.5699 25.0343 62.55 21.1961 62.55C19.6475 62.55 17.874 61.0809 17.4703 59.6978C17.3247 59.1949 17.2122 58.6655 17.2122 58.1427C17.199 48.375 17.1924 38.6074 17.2122 28.8397C17.2122 28.2905 17.4571 27.7412 17.5894 27.1919C17.5894 27.1655 17.5894 27.1324 17.5894 27.1059H17.5961ZM20.7196 59.1287C20.7659 59.1618 20.8122 59.1949 20.8652 59.2346C21.3152 59.3338 21.7652 59.5125 22.2152 59.5125C34.5571 59.5258 46.899 59.5257 59.2409 59.5257C59.4791 59.5257 59.724 59.5125 59.9556 59.5588C60.6571 59.7044 61.663 59.0691 61.6894 58.3677C61.7291 57.2625 61.7027 56.1508 61.7027 55.0456H20.2166C20.2166 56.1044 20.1769 57.1235 20.2431 58.1427C20.263 58.4802 20.5608 58.7978 20.7262 59.1287H20.7196ZM61.6961 51.9022C61.7291 51.8625 61.7689 51.8294 61.8019 51.7897C61.8019 51.353 61.8218 50.9162 61.8218 50.4794C61.8218 43.6103 61.8218 36.7412 61.8218 29.8721C61.8218 29.2235 61.7689 28.5155 61.1534 28.1713C60.6968 27.9133 60.1078 27.7743 59.585 27.7677C47.1769 27.7478 34.7689 27.7478 22.3608 27.7544C22.1424 27.7544 21.924 27.7478 21.7056 27.7743C21.0703 27.8537 20.2431 28.661 20.2431 29.1838C20.2431 36.6221 20.2497 44.0537 20.2564 51.4919C20.2564 51.6177 20.2696 51.7434 20.2762 51.9353H21.0108C34.2924 51.9353 47.574 51.9353 60.849 51.9353C61.1336 51.9353 61.4115 51.9088 61.6961 51.8956V51.9022ZM36.6086 62.5963V66.1103H45.4564V62.5963H36.6086Z" fill="#374970" stroke="#EDF3FF" stroke-width="0.5" stroke-miterlimit="10"/>
<path id="Vector_3" d="M74.7795 21.0441H46.6611C43.2439 21.0441 40.4736 23.8143 40.4736 27.2316V35.6492C40.4736 39.0665 43.2439 41.8367 46.6611 41.8367H74.7795C78.1968 41.8367 80.967 39.0665 80.967 35.6492V27.2316C80.967 23.8143 78.1968 21.0441 74.7795 21.0441Z" fill="#4284F2"/>
<path id="Vector_4" d="M75.8446 42.9353H45.5821C42.1542 42.9353 39.3682 40.1492 39.3682 36.7213V26.1595C39.3682 22.7316 42.1542 19.9456 45.5821 19.9456H75.8446C79.2726 19.9456 82.0586 22.7316 82.0586 26.1595V36.7213C82.0586 40.1492 79.2726 42.9353 75.8446 42.9353ZM45.5821 22.1426C43.3652 22.1426 41.5586 23.9492 41.5586 26.1661V36.7279C41.5586 38.9448 43.3652 40.7514 45.5821 40.7514H75.8446C78.0615 40.7514 79.8682 38.9448 79.8682 36.7279V26.1661C79.8682 23.9492 78.0615 22.1426 75.8446 22.1426H45.5821Z" fill="#374970"/>
<path id="Vector_5" d="M56.5544 34.8287C56.4088 35.2258 56.2103 35.5897 55.9522 35.9272C55.4758 36.5427 54.8934 37.0059 54.2118 37.3103C53.5302 37.6147 52.7956 37.7669 52.0147 37.7669C51.7103 37.7669 51.353 37.7272 50.9294 37.6544C50.5125 37.5816 50.0757 37.4824 49.6324 37.3633C49.189 37.2441 48.7588 37.1184 48.3485 36.9794C47.9316 36.8405 47.5875 36.7015 47.3096 36.5625C47.3228 36.4699 47.3559 36.3375 47.4088 36.1721C47.4618 36 47.5147 35.828 47.5677 35.6361C47.6206 35.4508 47.6735 35.2721 47.7265 35.1C47.7794 34.928 47.8191 34.8022 47.839 34.703C47.8655 34.6434 47.8853 34.564 47.9184 34.4581C47.9449 34.3522 47.9713 34.2728 47.9978 34.2133C47.9978 34.1669 48.011 34.1338 48.0309 34.1074V34.0875C48.1037 34.1206 48.2162 34.1669 48.375 34.2265C48.5338 34.2861 48.6993 34.3456 48.8846 34.4118C49.0633 34.478 49.2419 34.5375 49.4206 34.6037C49.5927 34.6699 49.7382 34.7162 49.8574 34.7493C50.2412 34.8883 50.6184 35.014 50.9824 35.1265C51.353 35.239 51.7169 35.2919 52.0941 35.2919C52.3125 35.2919 52.5375 35.2522 52.7559 35.1794C52.9743 35.1066 53.1728 34.9941 53.3515 34.8552C53.5235 34.7162 53.6691 34.5441 53.7684 34.3456C53.8677 34.1471 53.9272 33.9287 53.9272 33.6971C53.9272 33.5449 53.8743 33.4059 53.7618 33.2802C53.6493 33.1544 53.5169 33.0419 53.3713 32.9361C53.2191 32.8368 53.0603 32.7508 52.8882 32.6713C52.7162 32.5986 52.5772 32.5324 52.4581 32.4861C51.9816 32.3008 51.4721 32.1221 50.9294 31.9633C50.3868 31.7978 49.8838 31.5861 49.414 31.328C48.9441 31.0699 48.5603 30.7258 48.2625 30.3155C47.9581 29.8986 47.8059 29.3493 47.8059 28.6611C47.8059 28.0522 47.9449 27.5162 48.2162 27.0463C48.4875 26.5765 48.8449 26.1728 49.2816 25.8486C49.7184 25.5243 50.2081 25.2794 50.7574 25.114C51.3066 24.9486 51.8559 24.8691 52.3985 24.8691C52.6765 24.8691 53.0206 24.9022 53.4309 24.9684C53.8412 25.0346 54.2316 25.1405 54.6022 25.2927C54.9728 25.4449 55.2905 25.6434 55.5552 25.8949C55.8199 26.1463 55.9456 26.4508 55.9456 26.8147C55.9456 27.1324 55.8397 27.4037 55.6213 27.6419C55.403 27.8802 55.1316 27.9993 54.8074 27.9993C54.5956 27.9993 54.3838 27.9596 54.1721 27.8868C53.9537 27.814 53.7353 27.728 53.4971 27.6419C53.2588 27.5559 53.0206 27.4699 52.7691 27.3971C52.5177 27.3243 52.253 27.2846 51.975 27.2846C51.8228 27.2846 51.664 27.3111 51.5052 27.3574C51.3463 27.4037 51.1941 27.4765 51.0618 27.5758C50.9294 27.675 50.8169 27.7941 50.7309 27.9265C50.6449 28.0588 50.5985 28.2177 50.5985 28.3897C50.5985 28.6015 50.6515 28.7802 50.764 28.9258C50.8765 29.0713 51.0155 29.1971 51.1809 29.2963C51.353 29.3956 51.5316 29.4816 51.7235 29.5478C51.9155 29.614 52.0941 29.6736 52.2596 29.7199C52.7493 29.8721 53.2588 30.0375 53.7882 30.2294C54.3177 30.4213 54.8074 30.653 55.2507 30.9375C55.6941 31.2221 56.0581 31.5794 56.3427 32.003C56.6272 32.4265 56.7728 32.9559 56.7728 33.5846C56.7728 34.0147 56.7 34.4316 56.5544 34.8287Z" fill="white"/>
<path id="Vector_6" d="M66.2622 37.9059L65.4086 35.3382H60.3924C60.3593 35.4441 60.2931 35.6029 60.2071 35.8213C60.1211 36.0397 60.0218 36.2581 59.9159 36.4831C59.81 36.7081 59.7041 36.9198 59.5916 37.1051C59.4791 37.2904 59.3865 37.4029 59.3005 37.436C59.2078 37.5419 59.0953 37.6279 58.9563 37.7007C58.824 37.7669 58.6718 37.8066 58.513 37.8066C58.1424 37.8066 57.8181 37.6809 57.5402 37.4294C57.2689 37.1779 57.1299 36.8603 57.1299 36.4765C57.1299 36.3507 57.1431 36.225 57.1762 36.0993C57.2027 35.9801 57.2424 35.8544 57.2887 35.7419L60.8027 26.4772C60.9747 26.0206 61.2328 25.65 61.5703 25.3522C61.9078 25.0544 62.3314 24.9088 62.8475 24.9088C63.3968 24.9088 63.8402 25.0478 64.1777 25.3257C64.5152 25.6037 64.7799 25.9875 64.9652 26.4772L68.9887 37.1978L66.2622 37.9125V37.9059ZM62.8872 27.8206L61.1733 32.9426H64.5813L62.8872 27.8206Z" fill="white"/>
<path id="Vector_7" d="M75.3752 27.1125C75.1303 27.3375 74.8458 27.4566 74.5215 27.4566H72.5627V36.3706C72.5627 36.7544 72.4303 37.0787 72.159 37.35C71.8877 37.6213 71.5634 37.7537 71.1796 37.7537C70.7958 37.7537 70.4847 37.6147 70.2068 37.3434C69.9289 37.0721 69.7965 36.7478 69.7965 36.3706V27.4566H67.0369L67.0171 25.028H74.5149C74.8656 25.028 75.1568 25.1471 75.3884 25.3919C75.62 25.6368 75.7391 25.928 75.7391 26.2655C75.7391 26.603 75.62 26.8875 75.3752 27.1125Z" fill="white"/>
</g>
</svg>
