<svg width="90" height="90" viewBox="0 0 90 90" fill="none" xmlns="http://www.w3.org/2000/svg">
<g id="Capa_1" clip-path="url(#clip0_469_6621)">
<path id="Vector" d="M45 90C69.8528 90 90 69.8528 90 45C90 20.1472 69.8528 0 45 0C20.1472 0 0 20.1472 0 45C0 69.8528 20.1472 90 45 90Z" fill="#EDF3FF"/>
<path id="Vector_2" d="M34.6963 16.114H57.4742C63.1654 16.114 67.7845 20.7331 67.7845 26.4243V56.4817H34.6963V16.114Z" fill="#4284F2"/>
<path id="Vector_3" d="M55.6346 65.6206L31.5067 65.5942C29.4155 65.5412 27.7809 64.853 26.6162 63.5493C24.7434 61.4581 24.8361 58.5067 24.8626 58.0103V28.092C24.8626 27.364 25.4581 26.7684 26.1861 26.7684C26.914 26.7684 27.5096 27.364 27.5096 28.092V58.05C27.5096 58.0898 27.5096 58.1228 27.5096 58.1625C27.5096 58.1824 27.3574 60.4126 28.6015 61.789C29.2699 62.5302 30.2361 62.9074 31.5464 62.9405L55.6412 62.9603C56.3692 62.9603 56.9648 63.5559 56.9648 64.2839C56.9648 65.0118 56.3692 65.6074 55.6412 65.6074L55.6346 65.6206Z" fill="#374970"/>
<path id="Vector_4" d="M48.3551 74.2235L24.2271 74.1971C22.136 74.1441 20.5014 73.4559 19.3367 72.1522C17.4639 70.061 17.5565 67.1096 17.583 66.6133V36.6949C17.583 35.9669 18.1786 35.3713 18.9065 35.3713C19.6345 35.3713 20.2301 35.9669 20.2301 36.6949V66.653C20.2301 66.6927 20.2301 66.7257 20.2301 66.7655C20.2301 66.7853 20.0779 69.0155 21.322 70.3919C21.9904 71.1331 22.9565 71.5103 24.2668 71.5434L48.3617 71.5632C49.0896 71.5632 49.6852 72.1588 49.6852 72.8868C49.6852 73.6147 49.0896 74.2103 48.3617 74.2103L48.3551 74.2235Z" fill="#374970"/>
<path id="Vector_5" d="M69.1081 57.8051H33.3728V14.7904H57.4743C63.8868 14.7904 69.1081 20.0117 69.1081 26.4242V57.8051ZM36.0199 55.1581H66.461V26.4242C66.461 21.4676 62.4309 17.4375 57.4743 17.4375H36.0199V55.1581Z" fill="#374970"/>
<path id="Vector_6" d="M57.1963 16.9743V22.7713C57.1963 22.7713 56.5345 30.6794 67.7845 29.3559C67.7845 29.3559 67.7845 16.1206 57.1963 16.9743Z" fill="white"/>
<path id="Vector_7" d="M65.3824 30.825C62.2192 30.825 59.7773 30.0111 58.103 28.3897C55.8067 26.1662 55.853 23.2346 55.8861 22.725V16.9677C55.8729 16.2794 56.4023 15.7037 57.0905 15.6441C60.2074 15.3927 62.8082 16.2133 64.8332 18.0794C69.0619 21.9772 69.1082 29.0449 69.1082 29.3427C69.1082 30.011 68.6052 30.5802 67.9369 30.6596C67.0369 30.7655 66.1832 30.8184 65.3824 30.8184V30.825ZM58.5199 18.2647V22.7713C58.5266 22.811 58.5199 22.8441 58.5199 22.8838C58.5199 22.9633 58.3876 25.0147 59.9626 26.5169C61.2663 27.761 63.4699 28.3169 66.3817 28.1515C66.1832 26.1927 65.4883 22.2949 63.0266 20.0316C61.8089 18.9133 60.3266 18.3309 58.5133 18.2647H58.5199Z" fill="#374970"/>
<path id="Vector_8" d="M57.4016 43.5971C57.2229 43.8486 57.031 44.067 56.8192 44.2523C56.528 44.4971 56.1972 44.7022 55.8332 44.8743C55.4626 45.0397 55.0854 45.1787 54.6883 45.2846C54.2913 45.3905 53.8942 45.4699 53.4972 45.5162C53.1001 45.5625 52.7229 45.5824 52.3722 45.5824C50.9626 45.5824 49.692 45.2912 48.5538 44.7089C47.4155 44.1265 46.4758 43.2927 45.7413 42.2074C45.2516 41.4861 44.8678 40.6986 44.5832 39.8449C44.2986 38.9912 44.1597 38.0978 44.1597 37.1846C44.1597 36.1125 44.3317 35.0868 44.6758 34.1074C45.02 33.128 45.5097 32.2611 46.145 31.5C46.7803 30.739 47.5347 30.117 48.4148 29.6272C49.295 29.1375 50.2744 28.8397 51.3663 28.7339C51.4457 28.7206 51.5251 28.7074 51.6178 28.7074H51.8692C52.3126 28.7074 52.7891 28.7603 53.3053 28.8662C53.8148 28.9721 54.3244 29.1177 54.8339 29.303C55.3369 29.4883 55.8133 29.7 56.2567 29.9449C56.7001 30.1897 57.0839 30.4478 57.4016 30.7258L56.1178 33.3199C55.5817 32.8897 55.0192 32.5456 54.4303 32.2875C53.8413 32.0295 53.1861 31.8971 52.4648 31.8971C52.2067 31.8971 51.9619 31.9236 51.7303 31.9633C51.1016 32.0824 50.5457 32.3008 50.0692 32.6052C49.5861 32.9096 49.1758 33.2934 48.8383 33.7434C48.5008 34.1934 48.2428 34.7096 48.0707 35.2787C47.892 35.8545 47.806 36.45 47.806 37.0787C47.806 37.7537 47.892 38.4022 48.0707 39.0177C48.2494 39.6397 48.5141 40.1824 48.8714 40.6589C49.2288 41.1353 49.6854 41.5125 50.228 41.8037C50.7707 42.0949 51.3994 42.2405 52.1207 42.2405C52.5972 42.2405 53.0207 42.1809 53.4045 42.0684C53.7883 41.9559 54.1391 41.8302 54.4633 41.6912C54.7876 41.5522 55.0722 41.4265 55.3369 41.314C55.595 41.2015 55.8464 41.142 56.0913 41.142C56.5347 41.142 56.9119 41.2942 57.2163 41.592C57.5207 41.8897 57.6729 42.2603 57.6729 42.7037C57.6729 43.0412 57.5869 43.3324 57.4082 43.5839L57.4016 43.5971Z" fill="white"/>
</g>
<defs>
<clipPath id="clip0_469_6621">
<rect width="90" height="90" fill="white"/>
</clipPath>
</defs>
</svg>
