<svg width="29" height="29" viewBox="0 0 29 29" fill="none" xmlns="http://www.w3.org/2000/svg">
<g id="Capa_1" clip-path="url(#clip0_478_6016)">
<path id="Vector" d="M21.5787 4.28748H7.43519C5.70127 4.28748 4.29565 5.69041 4.29565 7.42102V21.5375C4.29565 23.2681 5.70127 24.6711 7.43519 24.6711H21.5787C23.3126 24.6711 24.7182 23.2681 24.7182 21.5375V7.42102C24.7182 5.69041 23.3126 4.28748 21.5787 4.28748Z" fill="#0F55A8"/>
<path id="Vector_2" d="M28.3078 8.96188C27.927 8.96188 27.6155 8.65094 27.6155 8.27091V4.14582C27.6155 2.62223 26.3728 1.38194 24.8463 1.38194H20.8241C20.4434 1.38194 20.1318 1.071 20.1318 0.69097C20.1318 0.310936 20.4434 0 20.8241 0H24.8463C27.1378 0 29.0001 1.85871 29.0001 4.14582V8.27091C29.0001 8.65094 28.6885 8.96188 28.3078 8.96188Z" fill="#374970"/>
<path id="Vector_3" d="M0.692289 8.90659C0.31153 8.90659 0 8.59565 0 8.21562V4.20109C0 1.91398 1.86226 0.0552673 4.15374 0.0552673H8.2867C8.66746 0.0552673 8.97899 0.366204 8.97899 0.746237C8.97899 1.12627 8.66746 1.43721 8.2867 1.43721H4.15374C2.62724 1.43721 1.38458 2.6775 1.38458 4.20109V8.21562C1.38458 8.59565 1.07305 8.90659 0.692289 8.90659Z" fill="#374970"/>
<path id="Vector_4" d="M24.2093 28.9447H20.0763C19.6956 28.9447 19.384 28.6338 19.384 28.2537C19.384 27.8737 19.6956 27.5628 20.0763 27.5628H24.2093C25.7358 27.5628 26.9784 26.3225 26.9784 24.7989V20.7844C26.9784 20.4043 27.29 20.0934 27.6707 20.0934C28.0515 20.0934 28.363 20.4043 28.363 20.7844V24.7989C28.363 27.086 26.5008 28.9447 24.2093 28.9447Z" fill="#374970"/>
<path id="Vector_5" d="M8.23136 29H4.20916C1.91768 29 0.0554199 27.1413 0.0554199 24.8542V20.7291C0.0554199 20.3491 0.36695 20.0381 0.747709 20.0381C1.12847 20.0381 1.44 20.3491 1.44 20.7291V24.8542C1.44 26.3778 2.68266 27.6181 4.20916 27.6181H8.23136C8.61212 27.6181 8.92365 27.929 8.92365 28.309C8.92365 28.6891 8.61212 29 8.23136 29Z" fill="#374970"/>
</g>
<defs>
<clipPath id="clip0_478_6016">
<rect width="29" height="29" fill="white"/>
</clipPath>
</defs>
</svg>
